<svg width="176" height="67" viewBox="0 0 176 67" fill="none" xmlns="http://www.w3.org/2000/svg">
<path fill-rule="evenodd" clip-rule="evenodd" d="M1.19238 49.932C1.19238 50.6641 1.38469 50.8567 2.077 50.8567H6.92315C7.65392 50.8567 7.80777 50.7026 7.80777 49.9706V16.9907C7.80777 16.3357 7.61546 16.1431 7.00008 16.1431C5.38469 16.1431 3.76931 16.1431 2.15392 16.1431C1.30777 16.1431 1.19238 16.2972 1.19238 17.1448C1.19238 17.1448 1.19238 44.4611 1.19238 49.932Z" fill="#2A343E"/>
<path fill-rule="evenodd" clip-rule="evenodd" d="M159 25.621C160.346 25.544 161.577 25.4669 162.846 25.4284C164.615 25.3899 166.423 25.3899 168.192 25.6981C171.462 26.276 173.385 28.0868 174.154 31.3232C174.538 32.9799 174.692 34.6751 174.731 36.3703C174.808 38.9902 174.808 41.6101 174.308 44.23C173.962 46.0023 173.346 47.659 171.923 48.8919C170.846 49.8166 169.577 50.2404 168.231 50.5101C166.462 50.8568 164.654 50.9724 162.846 50.8953C160.731 50.8183 158.577 50.6642 156.462 50.5101C155.385 50.433 154.346 50.2404 153.269 50.0862C152.692 50.0092 152.462 49.701 152.385 49.123C152.346 48.9304 152.346 48.7763 152.346 48.5837C152.346 38.1426 152.346 27.7015 152.346 17.222C152.346 17.1064 152.346 16.9908 152.346 16.8752C152.385 16.1432 152.5 16.0276 153.269 16.0276H158C158.846 16.0276 158.962 16.1432 158.962 16.9908C158.962 19.6877 158.962 22.3847 158.962 25.0431V25.621H159ZM159 44.9235C161.077 45.1547 163.115 45.3858 165.192 45.0776C166.308 44.9235 167.192 44.3456 167.577 43.2668C167.769 42.7274 167.923 42.1495 167.962 41.5716C168.039 39.6067 168.038 37.6803 168.038 35.7153C168.038 35.1374 167.923 34.5595 167.808 33.9816C167.423 32.2093 166.5 31.4002 164.692 31.3232C162.846 31.2461 161.038 31.2461 159.192 31.2076C159.154 31.2076 159.077 31.2461 159 31.2461V44.9235Z" fill="#F00843"/>
<path fill-rule="evenodd" clip-rule="evenodd" d="M76.077 35.9849C76.077 35.1758 76.1539 34.3668 76.077 33.5962C75.8846 32.3633 74.9231 31.5928 73.5385 31.4001C72.9231 31.3231 72.2693 31.2845 71.6154 31.2845C69.1539 31.2845 66.7308 31.2845 64.2693 31.2845C63.2308 31.2845 63.1923 31.246 63.1923 30.2443C63.1923 29.1655 63.1923 28.0867 63.1923 26.9694C63.1923 26.5071 63.3846 26.2759 63.8462 26.1988C67.5769 25.5053 71.3077 25.3898 75.0769 25.698C76.6539 25.8136 78.1539 26.1603 79.5769 26.8538C81.3846 27.7785 82.3462 29.3196 82.6154 31.2845C82.7308 32.0166 82.7693 32.7871 82.7693 33.5577C82.7693 38.4892 82.7693 43.3823 82.7693 48.3139C82.7693 48.4294 82.7693 48.5065 82.7693 48.5836C82.7308 49.7009 82.3846 50.0091 81.3077 50.2402C78.1539 50.8567 74.9231 51.0493 71.6923 51.0879C69.8846 51.0879 68.0385 51.0493 66.2308 50.7026C63.6923 50.2017 62.077 48.7377 61.577 46.1563C61.1923 44.1528 61.1539 42.1109 61.7308 40.1459C62.3462 38.104 63.8077 36.9096 65.8462 36.4858C67.0769 36.2161 68.3846 36.1005 69.6539 36.0235C71.6539 35.9464 73.6154 36.0235 75.6154 35.9849H76.077ZM76.1154 40.3771C74.0385 40.3771 72 40.3001 69.9231 40.3771C68.6923 40.4156 68.077 41.1091 67.9231 42.3035C67.8462 42.7658 67.8846 43.3052 67.9616 43.7676C68.0769 44.6922 68.6539 45.2702 69.5769 45.4628C70.2308 45.5784 70.8846 45.6554 71.577 45.6554C73.1154 45.694 74.6539 45.5784 76.1539 45.2316V40.3771H76.1154Z" fill="#2A343E"/>
<path fill-rule="evenodd" clip-rule="evenodd" d="M48.4231 31.3232C47.3462 31.3617 46.2693 31.6314 45.6155 32.6331C45.1155 33.3266 44.9616 34.1742 44.8847 34.9833C44.6924 37.1794 44.6924 39.414 44.8847 41.6101C44.9616 42.5733 45.1539 43.5365 45.8847 44.3071C46.577 45.0776 47.5001 45.3088 48.4616 45.3088C51.0385 45.3473 53.577 45.3473 56.1539 45.3858C56.3078 45.3858 56.4616 45.3858 56.6155 45.3858C57.3847 45.4244 57.5385 45.5785 57.577 46.349C57.577 47.3893 57.577 48.4295 57.577 49.4313C57.577 50.1633 57.3462 50.3945 56.6155 50.5486C53.577 51.1265 50.5001 51.2035 47.3847 51.088C45.5385 51.0109 43.6924 50.7797 42.0001 49.9321C40.6155 49.2386 39.6924 48.1213 39.1155 46.6958C38.4231 44.962 38.1924 43.1127 38.1924 41.2633C38.1539 38.6435 38.2308 35.985 38.3462 33.3651C38.4231 31.9396 38.7693 30.5526 39.4616 29.2426C40.1924 27.8556 41.3078 26.931 42.7693 26.3916C44.2308 25.8522 45.7308 25.6596 47.2693 25.5825C49.8847 25.4669 52.5001 25.5054 55.077 25.8522C55.6539 25.9292 56.2308 26.0063 56.8078 26.1219C57.2693 26.1989 57.5385 26.4686 57.5385 26.931C57.5385 28.1253 57.5385 29.3582 57.5385 30.5526C57.5385 31.0149 57.3078 31.2461 56.8462 31.2461H52.5001C52.5001 31.2461 49.7693 31.2846 48.4231 31.3232Z" fill="#2A343E"/>
<path fill-rule="evenodd" clip-rule="evenodd" d="M132.846 40.4928C133 41.4174 133.077 42.2265 133.269 43.0356C133.577 44.3456 134.577 44.9235 135.846 45.0776C136.692 45.1546 137.538 45.2317 138.385 45.2317C140.769 45.2317 143.192 45.2317 145.577 45.2317C146.461 45.2317 146.577 45.3858 146.577 46.2334C146.577 47.3122 146.577 48.3525 146.577 49.4312C146.577 50.1247 146.423 50.2789 145.731 50.3944C142.269 51.0109 138.769 51.0494 135.269 50.8953C133.769 50.8568 132.231 50.6256 130.808 50.0477C128.615 49.2001 127.423 47.4663 126.846 45.2702C126.423 43.6906 126.231 42.0724 126.231 40.4542C126.231 38.1426 126.269 35.7924 126.423 33.4807C126.5 32.1322 126.846 30.7837 127.385 29.5509C128.308 27.5089 129.961 26.3916 132.077 25.8907C135 25.2357 138 25.2357 140.961 25.621C141.961 25.7366 143 25.9678 143.923 26.3145C146 27.0851 147.115 28.7418 147.692 30.7837C148.192 32.556 148.308 34.4054 148.385 36.2162C148.423 37.2564 148.385 38.2967 148.385 39.3369C148.385 40.069 148.115 40.3387 147.385 40.4157C147.077 40.4542 146.769 40.4542 146.461 40.4542C142.154 40.4542 137.846 40.4542 133.538 40.4542H132.846V40.4928ZM141.846 36.1006C141.731 35.1374 141.615 34.2513 141.423 33.3651C141.231 32.4404 140.615 31.7469 139.692 31.4772C138.154 31.0149 136.615 31.0534 135.077 31.4772C134.5 31.6314 134.038 31.9781 133.692 32.479C132.961 33.5963 132.923 34.8677 132.923 36.1391H141.846V36.1006Z" fill="#F00843"/>
<path fill-rule="evenodd" clip-rule="evenodd" d="M34.3847 36.9482C34.3462 35.0604 34.2308 33.0954 33.7308 31.1305C33.1539 29.0115 32.0001 27.3548 29.9232 26.4686C28.7693 25.9678 27.5001 25.7366 26.2308 25.6596C24.5001 25.5825 22.7308 25.544 21.0001 25.5825C19.4232 25.621 17.8847 25.8137 16.3847 26.3531C14.8847 26.8924 13.7308 27.8556 12.9616 29.2812C12.1155 30.8993 11.8078 32.6716 11.6924 34.4824C11.577 36.5629 11.5385 38.6435 11.6155 40.724C11.6539 42.188 11.8847 43.6136 12.1539 45.0776C12.3847 46.4261 12.9616 47.6975 13.9232 48.6992C15.1539 49.9707 16.7693 50.51 18.4616 50.7797C20.6539 51.1265 22.8847 51.1265 25.1155 51.0109C26.6155 50.9338 28.1155 50.7412 29.5385 50.2403C30.6924 49.8165 31.6539 49.1616 32.3847 48.1984C33.1924 47.1196 33.577 45.9252 33.8462 44.6538C34.2308 42.8815 34.3078 41.1092 34.3078 39.2214L34.3847 36.9482ZM27.7693 39.2214C27.6924 40.2616 27.6155 41.3789 27.4232 42.4577C27.1155 44.1915 26.3078 44.9235 24.577 45.2317C23.4232 45.4244 22.2308 45.4244 21.077 45.1932C19.577 44.885 18.8078 44.0374 18.5001 42.4192C18.1539 40.3772 18.1924 38.2967 18.2693 36.2162C18.3078 35.5997 18.3847 34.9833 18.4616 34.4054C18.8078 32.4405 19.577 31.5928 21.5385 31.4002C22.6539 31.2846 23.8078 31.3232 24.9232 31.4773C26.4616 31.7084 27.2693 32.7102 27.5001 34.521C27.6539 35.5997 27.6924 36.7171 27.7693 37.9114V39.2214Z" fill="#2A343E"/>
<path d="M92.5 26.5457C92.3846 26.0063 92.2692 25.7751 91.8461 25.7751H91.8077C91.7692 25.7751 91.7692 25.7751 91.7308 25.7751C90.8461 25.7751 88.0384 25.7751 86.7692 25.7751C86.5769 25.7751 86.4231 25.7751 86.3077 25.7751C86.2307 25.7751 86.1538 25.7751 86.0769 25.7751H86.0384H86C85.9615 25.7751 85.9231 25.7751 85.8846 25.7751C85.8846 25.7751 85.8846 25.7751 85.8461 25.7751C85.8077 25.7751 85.8077 25.7751 85.7692 25.8137C85.7308 25.8137 85.7307 25.8522 85.7307 25.8522L85.6923 25.8907C85.6923 25.8907 85.6923 25.9293 85.6538 25.9293C85.6538 25.9678 85.6154 25.9678 85.6154 26.0063C85.6154 26.0063 85.6154 26.0448 85.5769 26.0834C85.5769 26.1219 85.5769 26.1604 85.5769 26.1604C85.5769 26.1604 85.5769 26.199 85.5769 26.2375C85.5769 26.3145 85.5769 26.3916 85.6154 26.4686C85.6154 26.5842 85.6538 26.6998 85.6923 26.8154C86 27.9327 87.5769 33.6734 89.0384 38.9132C89.0384 38.9517 89.0384 38.9517 89.0769 38.9902C90.3846 43.6521 91.5769 48.0057 91.6923 48.391C92.1538 49.7395 93.0769 50.8568 94.5384 50.8568C94.5384 50.8568 95.6154 46.9655 96.8846 42.3036C94.9615 35.5998 92.6538 27.2007 92.5 26.5457Z" fill="#2A343E"/>
<path d="M108.192 26.3915C108.192 26.3144 108.154 26.2759 108.154 26.1988C108.115 26.0833 108.077 26.0062 108.039 25.9677C108.039 25.9677 108.039 25.9677 108.039 25.9292L108 25.8906C108 25.8906 108 25.9292 108.039 25.9292C108.039 25.9677 108.077 25.9677 108.077 26.0062C108.077 26.0062 108.077 26.0447 108.115 26.0833C108.115 26.1218 108.115 26.1603 108.115 26.1603C108.115 26.1603 108.115 26.1988 108.115 26.2374C108.115 26.3144 108.115 26.3915 108.077 26.4685C108.077 26.5841 108.039 26.6997 108 26.8153C107.692 27.9326 106.154 33.5962 104.692 38.7975C104.692 38.836 104.692 38.8745 104.731 38.9131C104.731 38.9516 104.731 38.9516 104.769 38.9901C106.077 43.652 107.269 48.0056 107.385 48.3909C107.846 49.7394 108.769 50.8567 110.231 50.8567C110.231 50.8567 110.731 49.0459 111.423 46.4645C111.692 45.4243 112.039 44.2684 112.346 43.0741C112.423 42.8429 112.462 42.6117 112.539 42.342C110.731 35.8308 108.5 27.5473 108.192 26.3915Z" fill="#2A343E"/>
<path d="M123.846 26.199C123.846 26.1605 123.846 26.1605 123.846 26.1219C123.846 26.0834 123.846 26.0449 123.808 26.0449C123.808 26.0064 123.769 26.0064 123.769 25.9678C123.769 25.9678 123.769 25.9293 123.731 25.9293L123.692 25.8908L123.654 25.8522C123.615 25.8522 123.615 25.8137 123.577 25.8137C123.577 25.8137 123.577 25.8137 123.539 25.8137C123.5 25.8137 123.462 25.8137 123.423 25.8137C123.385 25.8137 123.385 25.8137 123.385 25.8137H123.346C123.269 25.8137 123.231 25.8137 123.115 25.8137C123 25.8137 122.846 25.8137 122.654 25.8137C121.385 25.8137 118.615 25.8137 117.692 25.8137C117.654 25.8137 117.654 25.8137 117.615 25.8137H117.577C117.154 25.8522 117.039 26.0834 116.923 26.5843C116.769 27.2393 114.462 35.6769 112.577 42.4578C112.5 42.6889 112.462 42.9586 112.385 43.1898C112.039 44.4227 111.731 45.5785 111.462 46.5803C110.731 49.2002 110.269 50.9724 110.269 50.9724H114.923C116.385 50.9724 117.346 49.8551 117.769 48.5066C117.885 48.1214 119.115 43.7677 120.385 39.1058C120.385 39.0673 120.385 39.0673 120.423 39.0288C121.885 33.789 123.462 28.0483 123.769 26.931C123.808 26.8154 123.846 26.6999 123.846 26.5843C123.846 26.5072 123.885 26.4302 123.885 26.3531C123.846 26.2375 123.846 26.199 123.846 26.199Z" fill="#F00843"/>
<path d="M108.115 26.199C108.115 26.1605 108.115 26.1605 108.115 26.1219C108.115 26.0834 108.115 26.0449 108.077 26.0449C108.077 26.0064 108.038 26.0064 108.038 25.9678C108.038 25.9678 108.038 25.9293 108 25.9293L107.962 25.8908L107.923 25.8522C107.885 25.8522 107.885 25.8137 107.846 25.8137C107.846 25.8137 107.846 25.8137 107.808 25.8137C107.769 25.8137 107.731 25.8137 107.692 25.8137C107.654 25.8137 107.654 25.8137 107.654 25.8137H107.615C107.538 25.8137 107.5 25.8137 107.385 25.8137C107.269 25.8137 107.115 25.8137 106.923 25.8137C105.654 25.8137 102.885 25.8137 101.962 25.8137C101.923 25.8137 101.923 25.8137 101.885 25.8137H101.846C101.423 25.8522 101.308 26.0834 101.192 26.5843C101.038 27.2393 98.7308 35.6769 96.8462 42.4192C95.5769 47.0811 94.5 50.9339 94.5 50.9724C94.5 50.9724 94.5 50.9724 94.5385 50.9724H99.1923C99.1923 50.9724 99.1923 50.9724 99.2308 50.9724C100.692 50.9724 101.615 49.8551 102.077 48.5066C102.192 48.1214 103.423 43.7677 104.692 39.1058C104.692 39.0673 104.692 39.0673 104.731 39.0288C106.192 33.789 107.769 28.0483 108.077 26.931C108.115 26.8154 108.154 26.6999 108.154 26.5843C108.154 26.5072 108.192 26.4302 108.192 26.3531C108.115 26.2375 108.115 26.199 108.115 26.199Z" fill="#F00843"/>
</svg>
